<svg xmlns="http://www.w3.org/2000/svg" viewBox="0 0 512 512" role="img" aria-label="German Coach">
  <defs>
    <linearGradient id="bg" x1="0%" y1="0%" x2="100%" y2="100%">
      <stop offset="0%" stop-color="#1f4468"/>
      <stop offset="100%" stop-color="#1a3a5c"/>
    </linearGradient>
  </defs>
  <rect width="512" height="512" rx="108" fill="url(#bg)"/>
  <circle cx="256" cy="256" r="168" fill="none" stroke="#c9a227" stroke-width="18" opacity="0.35"/>
  <path
    d="M120 280c18-88 98-148 186-132 62 11 108 67 108 132 0 74-60 134-134 134-52 0-97-30-118-74"
    fill="none"
    stroke="#c9a227"
    stroke-width="22"
    stroke-linecap="round"
  />
  <path
    fill="#ffffff"
    d="M256 148c-59.5 0-108 48.5-108 108s48.5 108 108 108c29.8 0 56.7-12.1 76.2-31.6l-30.4-30.4C288.4 316.8 273.1 322 256 322c-36.9 0-66-30.1-66-66s30.1-66 66-66c22.3 0 42 11.1 54 28h-54v38h102v-38c0-56.1-45.9-102-102-102z"
  />
  <circle cx="368" cy="152" r="20" fill="#c9a227"/>
</svg>
