<svg xmlns="http://www.w3.org/2000/svg" viewBox="0 0 1200 400" role="img" aria-label="German Coach">
  <defs>
    <linearGradient id="bg" x1="0%" y1="0%" x2="100%" y2="100%">
      <stop offset="0%" stop-color="#1f4468"/>
      <stop offset="100%" stop-color="#1a3a5c"/>
    </linearGradient>
  </defs>
  <rect x="0" y="44" width="312" height="312" rx="66" fill="url(#bg)"/>
  <circle cx="156" cy="200" r="102" fill="none" stroke="#c9a227" stroke-width="11" opacity="0.35"/>
  <path
    d="M72 218c11-54 60-90 114-82 38 7 66 41 66 82 0 45-37 82-82 82-32 0-59-18-72-46"
    fill="none"
    stroke="#c9a227"
    stroke-width="13"
    stroke-linecap="round"
  />
  <path
    fill="#ffffff"
    d="M156 90c-36 0-66 30-66 66s30 66 66 66c18 0 34-7 46-18l-18-18c-8 8-19 12-28 12-20 0-36-16-36-36s16-36 36-36c13 0 25 7 33 17h-33v23h62v-23c0-34-28-62-62-62z"
  />
  <circle cx="224" cy="96" r="12" fill="#c9a227"/>
  <text x="360" y="178" font-family="Segoe UI, system-ui, sans-serif" font-size="92" font-weight="700" fill="#1a3a5c">
    German Coach
  </text>
  <text x="362" y="248" font-family="Segoe UI, system-ui, sans-serif" font-size="40" font-weight="600" fill="#5a785a" letter-spacing="0.08em">
    SIFIRDAN A1
  </text>
</svg>
